<svg id="Calque_1" data-name="Calque 1" xmlns="http://www.w3.org/2000/svg" viewBox="0 0 254.67 114.28"><defs><style>.cls-1{fill:#fff}</style></defs><path class="cls-1" d="M253.72 2c-.15-.19-1.14-1.69-4.79-1.82L179.1.15S166.22 0 159.86 9.57l-6 9.54h66.07L214.44 28h-66.15l-12.41 19h67l-5.27 8.63h-67.28l-12.64 20h79.62C213.22 75.46 220 63.71 220 63.71s10.91-17.66 11-17.84c1.74-3 3-4.79 2.42-7-.42-1.6-2.72-2.67-2.72-2.67 2-.33 6.88-.92 9.36-5.18 1.39-2.14 7.6-12.59 12.59-20.69-.03.02 3.72-5.07 1.07-8.33zm-57.11 55.51h-65.07l-10.86 17.05h-1.11L131 56.64h66.15zm16.92-27.79h-64.06L138.8 46.09h-1.16l11.2-17.2H214zM181.22 1.66c-13.45 0-18.29 6.91-19.08 7.9s-5.39 8.51-5.39 8.51h-1.16l5.51-8.61C168.19 0 181.28 1 181.28 1H248a10.49 10.49 0 013.8.68l-70.58-.02zm-38.13 17.53L155.44 0H89.82C68.54 0 58.47 18.5 58.47 18.5L36.58 54.94 22.8 77c13.2 0 21.94-2.43 28.08-5.7A32.51 32.51 0 0062.57 60l8.66-13.11h44c8.39 0 14.55-7.05 14.55-7.05l9.27-13H83.42l5.1-7.64zm-5.62 8.63l-.74.89H55L26.15 76h-1.42l29.41-48.21zm-77.09-8.15L56 26.83h-1.3c-.13 0 4.39-7.38 4.39-7.38S68.37 2.2 88 1.07h65.51l-.62 1L88.1 2a36.06 36.06 0 00-27.72 17.67z"/><path class="cls-1" d="M132.41 114.15l1-1.47H142c2.22 0 3-.25 3.68-1.2.23-.31.3-.57.21-.76s-.66-.51-1.46-.58l-4.77-.52c-.67-.08-1.85-.32-2.23-1.13a1.69 1.69 0 01.34-1.67 5.82 5.82 0 015.28-2.5h8.76l-1.06 1.43h-8.19a3.81 3.81 0 00-3.13 1.4c-.72 1 .66 1.1 1.34 1.17l4.83.5a2.41 2.41 0 012 1.08 1.83 1.83 0 01-.18 1.78c-1 1.87-2.38 2.47-5.62 2.47zm42.37 0l6.89-9.83h8.05c1.43 0 2.42.37 2.86 1.09a2.13 2.13 0 01-.14 2.18c-1.08 2.09-3 3.1-6 3.1H179l-2.42 3.46zm12.16-4.81a4.91 4.91 0 003.88-1.94 1.21 1.21 0 00.17-1.26c-.16-.3-.62-.47-1.34-.47h-7.1l-2.55 3.67zm9.69-2.13h-.71l1.41-2.64h-1.55l.31-.58h3.72l-.31.58H198zm7 0h-.75l1.29-2.42-2.33 1.7h-.36l-.52-1.56-1.23 2.28H199l1.71-3.22h.72l.53 1.72 2.39-1.72h1zM3.15 114.15c-1.63 0-2.61-.34-3-1.06s0-2.1 1.28-4c2.33-3.32 4.89-4.8 8.31-4.8h8.46l-1 1.45H9.43c-2.52 0-4.39 1.12-6.23 3.75-.65.94-1.37 2.07-1.1 2.59.17.34.82.5 2 .5h8.35l-1.11 1.54zm23.51 0l2.85-4.13H20l-2.86 4.13H15.2l6.89-9.84h1.94l-2.96 4.24h9.51l2.96-4.24h1.97l-6.9 9.84h-1.95zm134.25 0l2.86-4.13h-9.52l-2.85 4.13h-1.95l6.89-9.84h1.94l-2.96 4.24h9.51l2.97-4.24h1.96l-6.89 9.84h-1.96zm-114.5 0l.46-2.66h-8.3l-3.31 2.66h-2.41l9.8-8a7 7 0 014.82-2 1.81 1.81 0 011.44.59 2.06 2.06 0 01.36 1.7l-1.19 7.67zm.68-4.15l.58-3.45a1 1 0 00-.07-.79.88.88 0 00-.66-.2 4.1 4.1 0 00-2.53 1.18l-4 3.26zm18.12 4.15l5.33-7.58-8.79 5.43h-1.3l-1.74-5.91-5.62 8h-1.9l6.89-9.83h1c.57 0 1 .38 1.13 1.13l1.44 4.89 8.85-5.49a3.2 3.2 0 012-.53H74l-6.89 9.83zm6.34 0l6.89-9.83h8c1.43 0 2.42.37 2.86 1.09a2.13 2.13 0 01-.14 2.18c-1.08 2.09-3 3.1-6 3.1H75.8l-2.42 3.46zm12.16-4.81a4.91 4.91 0 003.88-1.94 1.21 1.21 0 00.17-1.26c-.16-.3-.63-.47-1.34-.47h-7.1l-2.57 3.67zm5.3 4.81l6.89-9.84h1.87l-6.89 9.84h-1.87zm78.58 0l6.89-9.84h1.86l-6.88 9.84h-1.87zm-64.95.13c-2.91 0-4.44-.43-4.94-1.4s-.09-2 1.11-3.76c2.86-4.09 6.31-4.93 10.61-4.93 2.51 0 4.06.52 4.61 1.54.48.87.21 2.09-.78 3.61-3 4.58-6.27 4.94-10.61 4.94m6.07-8.66c-3.56 0-5.82.58-8.27 3.74-1 1.29-1.36 2.16-1.12 2.66.37.75 2.24.85 4 .85 3.71 0 6-.58 8.23-3.75.89-1.28 1.2-2.15.93-2.66-.39-.74-2.14-.84-3.8-.84m18.61 8.53c-2.12 0-2.92-1-3.53-4.6s-.83-3.75-1.91-3.75h-.06l-5.85 8.35h-1.89l6.89-9.83h1c2 0 2.86 1.19 3.36 4.57.56 3.71 1 3.71 2 3.71h.06l5.81-8.28h2l-6.89 9.83z" id="Championship"/><path class="cls-1" d="M106.65 86.84h-9.06l-7.32 11.31h3l2.5-3.9h6.42c1.89 0 .88 1.53.88 1.53l-1.56 2.35h2.95l1.4-2.13c1.07-1.66-.27-2.48-.27-2.48 1.4-.46 2.84-.81 3.71-2.83 1.59-3.68-2.65-3.86-2.65-3.86m.25 3.6c-.52 1.6-2.77 1.57-2.77 1.57h-6.92l2-3h6.39s1.73 0 1.29 1.41m-61.24-3.57c-1.86 0-2.92.74-4.51 2.14l-10.58 9.26h3.17l3.2-2.78h7.74l-.42 2.78h2.42l1.23-8.69a2.24 2.24 0 00-2.25-2.71m-.16 2.91L45 93.38h-5.69l4.19-3.63c.54-.47.89-.77 1.37-.77s.7.3.62.77m-12.81-2.74l-7.31 11.23h2.83l7.31-11.23h-2.83zM16.41 92c1.49-2.31 2.34-2.66 4.93-2.66h7.24l1.5-2.34h-8.15c-3.89 0-5.64.53-8.13 4.37l-4.42 6.87h2.95l2.52-3.88h10l1.36-2.09h-10zm162.11-5.32c-1.88 0-2.94.74-4.54 2.15l-10.67 9.33h3.21l3.21-2.8h7.81l-.43 2.8h2.44l1.23-8.76a2.24 2.24 0 00-2.26-2.72m-.16 2.93l-.52 3.65h-5.71l4.22-3.65c.55-.48.9-.78 1.38-.78s.71.3.63.78m-26.17 3.87l4.28-6.64h-2.85l-4.31 6.64c-2.08 3.14-.25 4.68 3.2 4.68h8.18l1.44-2.25h-8.77c-2.31 0-2.39-.58-1.17-2.43m-4.67-6.64l-3.83 5.9c-1.78 2.72-3.5 3.34-6.78 3.34s-4-.62-2.27-3.34l3.83-5.9h-2.75l-3.83 5.9c-2.67 4.11-.69 5.65 4.26 5.65 5.86 0 7.73-1.54 10.4-5.65l3.83-5.9zm56.6 2.55c.17-1.27-.59-2.55-3-2.55h-7.56L192 89.07h8c.9 0 1.33.46 1.19 1-.19.75-.9 1.24-2.58 1.24h-7.79l-1.38 2.12h8.19c.93 0 1.23.63 1.09 1.11-.18.65-.84 1.3-2.69 1.3h-8.5l-1.49 2.32h9.49c4.47 0 5.71-2.27 5.86-3.91a1.57 1.57 0 00-.92-1.7c2.21-.35 3.42-1.67 3.62-3.16m-74.84-2.55a3.77 3.77 0 00-2.14.88l-7.49 5.77-1.12-5.77c0-.43-.14-.88-1-.88h-2.1l-7.36 11.32h3l5.45-8.36 1.16 6h2.23l7.91-6-5.46 8.37h3l7.37-11.32zm-68.76 5c1.5-2.33 2.36-2.68 5-2.68h7.86l1.51-2.32h-8.8c-3.93 0-5.69.54-8.21 4.41l-4.44 6.91h3l2.53-3.91H69.6l1.4-2.1H60.29zm30.17-3.25c-1.19-1.84-3.91-2.08-6.42-2.08-3.67 0-6.13.94-8.16 2.86a8.38 8.38 0 00-2.46 4.35 3.4 3.4 0 00.67 2.68c1.07 1.4 3.3 2.1 6.39 2.1 5.12 0 8.49-1.83 10.08-5.61a4.45 4.45 0 00-.1-4.3M80.6 96.14a13.22 13.22 0 01-2.09-.14h-.17l-.47-.09c-2-.54-1.74-2-1.59-2.48a6.69 6.69 0 011.41-2.3c1.1-1.1 2.74-2.3 6.62-2.3a18.35 18.35 0 012 .09s3.09.28 2.39 2.61a4 4 0 01-.15.39c-.83 2-2.48 4.26-7.94 4.26" id="FIA_Forumla_3" data-name="FIA Forumla 3"/></svg>