<svg width="38" height="25" xmlns="http://www.w3.org/2000/svg" xmlns:xlink="http://www.w3.org/1999/xlink"><defs><path id="a" d="M0 0h36.938v24.755H0z"/></defs><g transform="translate(.293)" fill="none" fill-rule="evenodd"><mask id="b" fill="#fff"><use xlink:href="#a"/></mask><path d="M19.149 22.947c.466.222.95.414 1.447.576l.23-.84 1.343.353-.229.84c.557.112 1.128.186 1.71.219v-.868h1.39v.867a12.14 12.14 0 001.71-.218l-.229-.84 1.345-.354.229.842a11.99 11.99 0 001.594-.648l-.444-.756 1.205-.683.444.756c.482-.312.94-.656 1.37-1.031l-.63-.619.984-.967.632.621c.384-.422.736-.87 1.056-1.343l-.779-.442.696-1.184.783.444c.259-.503.482-1.027.667-1.569l-.879-.231.36-1.321.882.232c.116-.549.194-1.113.229-1.687h-.916v-1.368h.92a11.57 11.57 0 00-.22-1.69l-.895.236-.36-1.321.9-.238a11.511 11.511 0 00-.66-1.578l-.811.46-.696-1.184.813-.462c-.319-.477-.672-.93-1.057-1.356l-.665.653-.983-.967.667-.656c-.432-.38-.893-.729-1.378-1.044l-.474.807-1.205-.684.476-.81a11.993 11.993 0 00-1.609-.658l-.247.907-1.344-.354.248-.907A12.123 12.123 0 0025.04.66v.937h-1.39V.66c-.589.033-1.165.109-1.727.223l.246.906-1.344.354-.246-.905c-.492.16-.97.35-1.43.57a12.604 12.604 0 012.746 2.227 8.866 8.866 0 012.45-.344c4.849 0 8.793 3.913 8.793 8.721a8.613 8.613 0 01-.738 3.494l1.079 3.35h-3.69a8.838 8.838 0 01-7.943 1.516 12.611 12.611 0 01-2.697 2.175zm1.966-2.348a14.36 14.36 0 00-2.39-1.601v.316h-2.1a15.38 15.38 0 01-3.856 4.644v.154a12.005 12.005 0 008.346-3.513zm-8.346 2.908a15.02 15.02 0 003.457-4.193h-1.795V17.55a12.007 12.007 0 00-1.662-.142v6.099zm0-6.445a12.6 12.6 0 011.662.138v-4.65h-1.662v4.512zm0-4.857h1.662v-1.85h3.478c-.048-.316-.106-.63-.175-.942a2.35 2.35 0 01-1.17.31c-1.275 0-2.31-1.006-2.329-2.253-.487.056-.976.09-1.466.095v4.64zm0-4.985c.497-.006.994-.04 1.488-.1a2.306 2.306 0 011.81-1.92 14.976 14.976 0 00-3.298-3.897V7.22zm8.736-2.655a15.355 15.355 0 01-2.932 1.715c.202.339.318.733.318 1.155a2.27 2.27 0 01-.846 1.765c.089.382.162.767.219 1.154h.46v1.85h3.219L23.458 7.5a11.73 11.73 0 00-1.953-2.935zM32.234 15.39c.356-.925.552-1.93.552-2.978 0-4.618-3.787-8.375-8.44-8.375a8.51 8.51 0 00-2.19.286c.611.702 1.144 1.47 1.586 2.295l.286-.89h5.095l3.111 9.662zm-4.743-1.105l-.607-2.883s-.182-.777-.235-1.15h-.147c-.052.373-.235 1.15-.235 1.15l-.606 2.883h1.83zm-5.385 6.203c.726.198 1.477.3 2.24.3a8.438 8.438 0 004.86-1.532h-.542l-.39-1.735h-3.396l-.39 1.735h-1.424c-.294.43-.614.842-.958 1.232zm-.274-7.938h-3.108v6.056c.332.172.659.356.98.554l2.128-6.61zm-1.977 6.706c.52.33 1.022.696 1.501 1.094.327-.346.632-.711.914-1.094h-2.415zM12.769.854a15.308 15.308 0 013.673 4.296 2.339 2.339 0 011.926.841 14.989 14.989 0 002.899-1.681A12.005 12.005 0 0012.769.642v.212zm-.352-.212A12.003 12.003 0 003.92 4.31a14.96 14.96 0 002.02 1.26h2.57A15.314 15.314 0 0112.417.855V.642zm0 .661a14.982 14.982 0 00-3.51 4.268h3.069v1.635c.147.007.294.012.441.014V1.303zm0 6.262a14.373 14.373 0 01-.441-.013v2.18H8.028v1.041h3.485v1.432h.904v-4.64zm0 4.985h-.904v2.038H8.028v2.71c.069.185.14.367.217.549a12.575 12.575 0 014.172-.785V12.55zm0 4.858c-1.354.02-2.72.286-4.028.769a15.026 15.026 0 004.028 5.33v-6.1zm0 6.55a15.374 15.374 0 01-4.356-5.656l-.033.014v.998H6.043c-.659.401-1.289.861-1.88 1.376a12.006 12.006 0 008.254 3.422v-.154zM3.92 20.443c.47-.411.958-.79 1.465-1.13H3.066V12.55H.654a11.59 11.59 0 003.265 7.893zM.654 12.205h2.412V5.57h2.148c-.528-.303-1.04-.64-1.532-1.006a11.581 11.581 0 00-3.028 7.64zm36.285.172c0 6.836-5.639 12.378-12.593 12.378-2.123 0-4.123-.517-5.877-1.43a12.705 12.705 0 01-5.875 1.43C5.638 24.755 0 19.213 0 12.377S5.638 0 12.594 0c2.121 0 4.12.517 5.874 1.428A12.712 12.712 0 0124.346 0C31.3 0 36.939 5.541 36.939 12.377z" fill="#012F63" mask="url(#b)"/></g></svg>